<?xml version="1.0" encoding="UTF-8" standalone="no"?>
<svg
   viewBox="0 0 150 100"
   width="900"
   height="600"
   version="1.1"
   id="svg34"
   xmlns="http://www.w3.org/2000/svg"
   xmlns:svg="http://www.w3.org/2000/svg">
  <defs
     id="defs38" />
  <rect
     width="125"
     height="100"
     fill="#FF671F"
     id="rect2"
     x="25"
     y="0"
     style="fill:#ff671f;fill-opacity:1;stroke-width:0.60858" />
  <rect
     width="25"
     height="100"
     y="0"
     fill="#046A38"
     id="rect6"
     x="0"
     style="fill:#046a38;fill-opacity:1;stroke-width:0.471405" />
  <g
     id="g130"
     transform="matrix(0.14735612,0,0,0.14735612,54.205007,89.7126)"
     style="fill:#000000;fill-opacity:1;stroke:#000000;stroke-width:1.70551;stroke-opacity:1">
	<path
   id="path132"
   d="m 450.91953,-445.8559 c -1.93931,-1.67813 -4.37036,-2.94228 -7.29043,-3.77996 -2.927,-0.83628 -6.16657,-1.25998 -9.7437,-1.25998 -17.83153,0 -34.77812,5.2122 -50.83012,15.62826 -16.04643,10.40914 -29.11028,24.51488 -39.16795,42.32556 -1.617,-6.39162 -2.43105,-13.95016 -2.43105,-22.68253 0,-6.04573 1.05855,-12.51374 3.16592,-19.39296 2.1213,-6.88757 5.11775,-13.85987 8.99498,-20.90717 -2.25465,-0.67236 -4.61766,-1.26415 -7.04873,-1.76981 -2.43107,-0.51123 -4.93575,-0.75294 -7.54325,-0.75294 -13.6209,2.35048 -26.75837,8.1517 -39.4041,17.38699 -12.65402,9.24082 -23.83555,21.08357 -33.56537,35.53245 -12.33175,-27.55023 -23.67581,-47.71001 -34.04881,-60.47797 -19.14707,28.21703 -32.9333,51.73448 -41.3559,70.55507 -10.37302,-18.81227 -23.44241,-33.59593 -39.17072,-44.3454 -15.7283,-10.75504 -31.86502,-16.13256 -48.40182,-16.13256 -1.94763,0 -3.728559,0.25562 -5.353899,0.75294 -1.617015,0.50149 -3.079822,1.09052 -4.381477,1.76426 6.166567,7.72662 10.948126,15.28654 14.358566,22.67698 3.40766,7.38905 5.10663,14.10853 5.10663,20.1598 0,3.69799 -0.81128,8.74071 -2.43107,15.11148 -11.674671,-17.46754 -25.699829,-31.07874 -42.07688,-40.81412 -16.38539,-9.7437 -33.169467,-14.61556 -50.355018,-14.61556 -3.564636,0 -6.809761,0.41675 -9.7298189,1.25167 -2.9200577,0.84739 -5.3539016,2.11015 -7.29597553,3.78273 9.40891943,11.75803 16.61320943,25.36921 21.64620843,40.81412 5.027444,15.45878 7.540472,32.09284 7.540472,49.89658 0,30.23551 5.59423,56.69245 16.78685,79.36665 11.178742,22.67419 25.859602,37.36617 44.024521,44.09814 -9.086625,5.3803 -16.214511,11.4149 -21.404489,18.13297 -5.18998,6.72364 -7.78497,13.27084 -7.78497,19.65135 0,1.00437 0.24728,2.18101 0.729318,3.53268 0.493162,1.32945 1.058562,2.68668 1.707312,4.03141 2.265747,-1.68231 4.62319,-2.94923 7.05426,-3.79108 2.425497,-0.83906 4.941306,-1.25026 7.537694,-1.25026 4.53984,0 9.56451,1.09329 15.079545,3.27707 5.513662,2.18101 11.031481,5.29139 16.539581,9.32836 6.80143,5.033 13.94876,8.81295 21.40172,11.31904 7.46406,2.51719 14.92257,3.77439 22.37831,3.77439 3.57018,0 6.9834,-0.4098 10.22853,-1.25581 3.24512,-0.83906 6.31382,-2.10877 9.23805,-3.76607 0.9766,1.00438 9.08107,6.04572 24.32177,15.10734 6.16934,4.36064 10.94256,11.00509 14.34745,19.89584 3.41322,8.9102 5.11776,19.07345 5.11776,30.50501 0,12.437342 -1.70454,24.105042 -5.11776,35.017067 -3.41043,10.9259 -8.17531,20.24035 -14.34745,27.965597 0,0 -0.42091,0.2028 -1.1044,0.486203 -2.3255,0.939097 -6.60416,1.218322 -6.72085,1.234972 -1.1669,0.17088 -15.17541,2.135175 -18.38164,0.953003 -0.81684,-0.298673 -23.77861,0.141727 -24.5635,0.982125 -1.82259,1.937925 -2.73528,4.088377 -2.73528,6.430552 0,1.926773 1.69341,3.52155 5.07884,4.77042 0.75432,0.279225 37.9149,1.38918 44.49128,-1.411395 1.56282,-0.666802 3.06871,-1.414177 4.52039,-2.232427 5.97209,-3.407648 10.96896,-8.155875 14.99343,-14.233525 9.08663,-13.7668 13.62646,-35.449125 13.62646,-65.006702 v -17.63009 c 1.93931,0 3.64383,0.49316 5.11218,1.50865 1.44614,1.00438 2.18381,2.18378 2.18381,3.52713 0,20.832148 -1.46282,38.484462 -4.3787,52.927762 -1.97819,9.786775 -7.7294,23.36325 -7.7294,23.36325 0,0 -4.26756,6.126277 -4.91631,6.872272 -0.29034,3.450705 3.55908,6.71253 5.83595,9.07275 2.27686,2.349105 28.37315,2.799878 32.38167,2.517578 4.09865,0.198322 30.58708,0.878947 35.18113,-3.706725 0.26254,-0.258398 2.3088,-2.379675 1.31552,-4.167548 -0.0571,-0.09998 -0.28755,-0.600127 -0.3584,-0.73488 -1.19052,-2.37687 -7.95585,-1.796197 -10.2452,-1.83927 -5.46783,-0.113955 -25.55815,1.05855 -28.71434,0.9627 -6.9237,-0.21393 -17.73707,-0.238927 -20.56683,-0.173655 -4.13003,0.0972 -2.67001,-1.92402 -2.67001,-1.92402 5.50255,-6.723627 9.72981,-17.649527 12.64848,-32.759627 2.92007,-15.112899 4.37871,-33.595947 4.37871,-55.425527 0,-9.75206 3.4021,-18.38998 10.21742,-25.94711 6.807,-7.57243 15.57132,-12.35398 26.26939,-14.3669 2.9145,1.67673 6.56388,2.92977 10.9398,3.76883 4.37316,0.84324 9.65066,1.25861 15.80471,1.25861 7.46407,0 14.99899,-1.51422 22.6228,-4.53706 7.62105,-3.0312 14.67114,-7.396 21.15585,-13.10275 5.51362,-5.04412 11.03147,-8.83102 16.53957,-11.34683 5.51643,-2.5158 10.54388,-3.76885 15.07815,-3.76885 2.9409,0 7.7947,2.51303 14.60307,7.56687 1.63368,-4.70516 2.43105,-8.06419 2.43105,-10.08267 0,-6.05266 -1.93929,-12.18034 -5.83869,-18.39831 -3.8911,-6.20547 -9.24363,-11.85109 -16.05756,-16.87855 14.59751,-12.77072 25.96238,-27.96558 34.07243,-45.60679 8.09893,-17.64119 12.15255,-36.03672 12.15255,-55.17964 0,-6.05265 -0.40703,-14.87394 -1.2183,-26.45136 -0.80573,-11.59828 -1.21555,-20.41541 -1.21555,-26.45696 0,-10.40912 2.35745,-20.90994 7.04593,-31.4955 4.70932,-10.60083 11.28015,-20.25563 19.7097,-28.98663 z m -218.89871,5.03439 c 18.15936,26.88064 32.01086,53.42233 41.5962,79.6181 9.56451,26.21383 14.34748,50.9065 14.34748,74.08777 0,19.48603 -5.43448,36.11312 -16.29508,49.88547 -10.86339,13.78343 -24.08563,20.66406 -39.6486,20.66406 -16.86328,0 -31.21628,-7.13622 -43.05348,-21.42396 -11.83721,-14.27937 -17.75791,-31.49548 -17.75791,-51.65806 0,-19.82776 5.18027,-42.6645 15.57135,-68.53659 10.37994,-25.86793 25.45533,-53.40844 45.24004,-82.63679 z m -83.9176,17.13415 c 11.83302,11.08011 22.77698,25.53035 32.82771,43.33549 -7.13067,16.12838 -12.56514,31.16626 -16.2951,45.10529 -3.73411,13.94738 -5.60533,26.62642 -5.60533,38.04688 0,14.10573 1.87261,27.21404 5.60533,39.3013 3.73134,12.09837 9.16305,22.51723 16.2951,31.24545 -19.46798,-5.3803 -35.26435,-17.8857 -47.41968,-37.54817 -12.16644,-19.65412 -18.24688,-42.42695 -18.24688,-68.28377 0,-19.49575 1.62256,-33.76542 4.86491,-42.83675 3.23957,-12.44152 4.86769,-22.51586 4.86769,-30.24386 0,-8.05863 -1.05578,-15.36711 -3.16317,-21.92404 -2.11155,-6.5486 -5.11218,-11.84138 -9.00189,-15.87278 11.6719,2.03237 23.43548,8.58375 35.27131,19.67496 z m -80.50719,153.45443 c -15.246252,-20.66406 -22.8673,-43.09654 -22.8673,-67.28774 0,-22.16854 -2.106002,-41.65457 -6.32216,-58.45949 -4.210605,-16.79241 -10.2202,-30.06463 -17.999609,-39.80417 15.565765,0 30.814799,4.70376 45.731819,14.10711 14.917021,9.4103 28.051719,22.34081 39.40133,38.80676 -3.23957,19.15958 -4.86213,33.42785 -4.86213,42.83676 0,20.82659 2.75891,39.81113 8.27812,56.94529 5.50254,17.13694 13.28612,30.90927 23.33684,41.32811 -4.54262,1.67675 -9.40614,2.50748 -14.59473,2.50748 -18.164921,0 -34.861481,-10.31606 -50.10218,-30.98011 z m 101.17401,64.26069 c -1.62811,3.01731 -2.4255,5.37198 -2.4255,7.0376 0,8.73933 0.79739,15.45186 2.4255,20.1709 -4.54401,1.67674 -9.4117,2.51303 -14.59752,2.51303 -6.15961,0 -12.40259,-1.09884 -18.71641,-3.29097 -6.31939,-2.16295 -12.24146,-5.27195 -17.76623,-9.31724 -6.80421,-6.05265 -13.70149,-10.16323 -20.664059,-12.34564 -6.973687,-2.17823 -13.052745,-2.26575 -18.24411,-0.25005 1.294718,-4.3662 4.22172,-8.73933 8.75601,-13.1111 4.542623,-4.36062 10.5411,-8.39479 17.996829,-12.09836 9.08941,1.6823 13.14026,2.52831 12.16366,2.52831 4.54401,0 9.00189,-0.4126 13.37642,-1.2586 4.36897,-0.84601 8.83936,-2.10599 13.36808,-3.78273 11.03149,6.39023 21.58092,10.58972 31.63163,12.5943 -3.25068,4.05503 -5.68174,7.58215 -7.3043,10.61055 z m 108.97981,25.94852 c -3.56463,4.19531 -8.27812,7.13066 -14.10852,8.81295 -5.1844,2.36856 -9.49365,5.13581 -12.9013,8.31841 -3.40767,3.1854 -5.60257,6.30828 -6.55833,9.32002 -1.61423,3.69522 -3.56465,6.72362 -5.84707,9.07272 -2.25463,2.34912 -4.36063,3.52992 -6.30825,3.52992 -2.9173,0 -5.67898,-0.91408 -8.27813,-2.76448 -2.59083,-1.84483 -4.69127,-4.287 -6.30827,-7.31263 -3.24514,-5.70814 -11.35515,-12.43178 -24.32178,-20.16534 -3.89665,-2.68668 -6.8945,-5.79012 -9.00467,-9.31724 -2.10321,-3.53268 -3.1576,-7.13066 -3.1576,-10.83144 0,-4.69126 0.87658,-8.89909 2.67,-12.59431 1.78788,-3.69522 4.12447,-6.2138 7.0626,-7.56408 13.27917,5.03578 27.87807,7.56408 43.77862,7.56408 12.64712,0 25.62065,-2.52275 38.9165,-7.56408 2.91728,1.335 5.26638,3.62437 7.05147,6.80004 1.79068,3.18261 2.67836,6.8042 2.67836,10.82866 -0.021,5.04967 -1.80593,9.6673 -5.36363,13.8668 z m 0.4751,-41.58234 c 7.78635,-11.74829 13.79458,-23.01039 17.99962,-33.75292 4.22726,-10.75503 3.80913,-66.10554 -1.21554,-84.41771 -5.02746,-18.31218 -12.23451,-36.03951 -21.64343,-53.17089 7.78217,-13.77789 17.27308,-24.94689 28.45598,-33.51257 11.1843,-8.57124 22.77699,-13.36393 34.78089,-14.36692 -2.25465,4.36203 -4.05084,9.07273 -5.34834,14.10991 -1.2975,5.03439 -1.94485,10.41053 -1.94485,16.12838 0,8.39342 3.24235,25.1914 9.72982,50.39948 4.86492,13.77789 7.29597,33.08471 7.29597,57.94408 0,21.16557 -6.55277,39.47774 -19.70415,54.93237 -13.13607,15.46714 -29.26444,24.0356 -48.40597,25.70679 z m 107.02108,17.64676 c -5.50255,-1.00995 -11.65663,-0.17365 -18.46915,2.51719 -6.81255,2.68112 -13.62371,6.88894 -20.43626,12.59987 -5.49697,5.03578 -11.17317,8.81852 -17.02579,11.33014 -5.82761,2.51303 -11.51213,3.78274 -17.02301,3.78274 -5.18442,0 -9.56172,-0.2681 -13.13192,-0.75432 -3.57575,-0.51539 -6.49025,-1.09883 -8.7588,-1.77398 1.62812,-2.35744 2.83532,-5.20942 3.64382,-8.56291 0.81686,-3.35903 1.21833,-7.23624 1.21833,-11.59688 0,-3.03118 -0.40702,-5.80954 -1.21833,-8.31841 -0.81405,-2.51581 -2.02402,-4.79407 -3.64382,-6.79449 2.91728,-1.67673 5.99573,-2.95199 9.24362,-3.77161 3.234,-0.84601 6.64723,-1.2586 10.21603,-1.2586 4.54262,1.67396 11.83723,2.50746 21.88793,2.50746 4.54955,0 15.8964,-2.50746 34.05159,-7.56407 3.89388,0 7.6266,1.60033 11.19263,4.80239 3.55908,3.19095 6.318,7.47795 8.25313,12.85548 z m 29.92155,-208.89245 c -3.73135,9.56867 -5.60256,19.56801 -5.60256,29.98129 0,6.05265 0.40703,14.87535 1.2183,26.45555 0.81405,11.58578 1.21553,20.40429 1.21553,26.45277 0,24.85383 -7.36405,47.867 -22.1352,69.04643 -14.75725,21.16555 -30.88425,31.74973 -48.40737,31.74973 -2.59083,0 -5.10386,-0.25005 -7.54048,-0.75433 -2.42827,-0.50983 -4.79128,-1.0905 -7.05703,-1.76426 10.05765,-8.74211 17.83986,-19.89862 23.3535,-33.51398 5.50256,-13.607 8.26703,-28.47819 8.26703,-44.60518 0,-18.47751 -3.2368,-40.31403 -9.72983,-65.51097 8.76156,-19.15403 20.59043,-34.44057 35.51578,-45.8624 14.91422,-11.42185 30.6356,-17.13138 47.17517,-17.13138 -7.11537,7.39184 -12.54429,15.87832 -16.27284,25.45673 z"
   style="fill:#000000;fill-opacity:1;stroke:#000000;stroke-width:1.70551;stroke-opacity:1" />

</g>
</svg>
