<?xml version="1.0" encoding="UTF-8" standalone="no"?>
<!-- Created with Inkscape (http://www.inkscape.org/) -->

<svg
   width="238.125mm"
   height="158.75mm"
   viewBox="0 0 238.125 158.75"
   version="1.1"
   id="svg2670"
   xmlns="http://www.w3.org/2000/svg"
   xmlns:svg="http://www.w3.org/2000/svg">
  <defs
     id="defs2667" />
  <g
     id="layer1"
     transform="translate(-6.2487621,-69.471535)">
    <rect
       style="opacity:1;fill:#f37022;fill-opacity:1;stroke-width:0.0974659"
       id="rect2753"
       width="238.125"
       height="52.916668"
       x="6.2487621"
       y="69.471535" />
    <rect
       style="fill:#ffffff;fill-opacity:1;stroke-width:0.0974659"
       id="rect2753-8"
       width="238.125"
       height="52.916668"
       x="6.2487621"
       y="122.3882" />
    <rect
       style="opacity:1;fill:#117b3d;fill-opacity:1;stroke-width:0.0876629"
       id="rect2923"
       width="238.125"
       height="52.916668"
       x="6.2487621"
       y="175.30487" />
    <g
       id="g5329"
       transform="matrix(1.1618732,0,0,1.1618732,189.79954,-21.129219)">
      <path
         style="fill:#ffffff;fill-opacity:1;stroke:none;stroke-width:0.264583px;stroke-linecap:butt;stroke-linejoin:miter;stroke-opacity:1"
         d="m -77.768642,194.65246 3.638028,-10.15008 -3.810524,-3.15182 -2.899875,-7.20292 -2.057974,-12.2543 v -7.5771 l 0.374176,-6.08038 1.870887,-4.58367 c 0,0 -0.561266,-7.76418 -0.467722,-10.38342 l 0.09355,-2.61924 2.245064,-16.18317 1.683797,-3.18051 2.432153,-2.05797 2.245064,-0.0935 0.935442,-0.37418 c 0,0 0.280633,-1.96443 1.216078,-3.1805 l 0.935443,-1.21608 2.432153,-1.49671 3.367815,1.00051 3.935677,-5.126304 3.340364,-0.959115 2.745052,2.215886 0.760678,2.976563 3.737239,-0.79375 2.38125,1.12448 1.322917,2.94349 2.513541,27.54974 1.091407,9.16119 3.770312,-7.14375 3.770312,-3.24114 4.365625,-0.19844 2.050521,3.10886 -3.836458,29.3026 -2.182813,6.61458 -8.545441,10.71747 -3.162371,7.73722 0.03017,4.07687 -32.019079,1.15856 z"
         id="path5034" />
      <path
         id="path3389"
         d="m -77.768644,194.65246 c -0.17191,-0.49313 -0.43601,-2.3332 -0.58688,-4.08914 -0.67931,-7.90601 -0.72435,-8.23119 -1.26682,-9.15458 -0.81029,-1.37922 -2.03711,-5.28664 -2.794,-8.89847 -2.043378,-9.75228 -2.087061,-20.31471 -0.11039,-26.6991 0.39407,-1.27289 0.59367,-2.71965 0.65418,-4.74213 0.17853,-5.96556 0.64194,-14.07874 0.89919,-15.7427 0.14623,-0.94589 0.43688,-3.34698 0.64588,-5.33559 0.7493,-7.12973 2.82601,-10.54947 7.06596,-11.63637 1.23962,-0.31772 1.36975,-0.43191 1.92675,-1.69143 0.32853,-0.7429 1.03841,-1.77906 1.57744,-2.30259 1.49019,-1.44727 2.5173,-1.83269 4.69556,-1.76205 l 1.8796,0.061 0.52991,-1.03574 c 1.68651,-3.296441 4.44183,-4.856421 7.24403,-4.102101 1.20248,0.3238 2.91729,1.98126 3.49223,3.375561 0.33915,0.8224 0.3723,0.83563 1.73966,0.69453 1.83545,-0.18943 3.08081,0.2525 4.19894,1.48995 1.69717,1.87857 1.98118,3.17315 2.57662,11.74644 1.35959,19.57467 1.74268,24.51391 1.91474,24.68589 0.33663,0.33665 1.25611,-0.77026 2.08835,-2.5141 1.02103,-2.13934 2.92815,-4.07935 4.91676,-5.00142 2.86437,-1.32831 6.02773,-0.75726 7.08025,1.27807 0.53419,1.03301 0.49405,3.57055 -0.11815,7.46654 -0.27975,1.78022 -0.76383,5.91556 -1.07577,9.18977 -1.1085,11.63506 -2.22927,16.79496 -4.79848,22.09271 -1.25257,2.58263 -2.44282,4.18254 -6.07351,8.16425 -1.53961,1.68836 -3.14669,3.69729 -3.57109,4.46432 -0.73316,1.32458 -0.77615,1.58017 -0.85743,5.09878 -0.0971,4.20185 -0.17492,4.36563 -2.07386,4.36563 -1.45039,0 -1.80094,-0.56666 -1.55723,-2.5173 l 0.17427,-1.39481 -2.33061,-0.71808 c -2.59339,-0.79906 -3.0353,-1.05727 -2.24123,-1.30931 0.29673,-0.0942 0.92636,-0.61183 1.39917,-1.15033 0.77264,-0.88001 0.80835,-0.98896 0.35274,-1.07672 -0.27879,-0.0537 -1.29413,0.0509 -2.25631,0.23246 -1.86362,0.35163 -3.30941,0.10771 -3.95208,-0.66683 -0.66136,-0.79687 -0.0228,-0.97028 2.87999,-0.78213 l 2.82178,0.18289 2.54508,-1.32345 c 8.1444,-4.23492 13.43924,-10.85982 15.53977,-19.44237 0.77195,-3.15437 3.0988,-22.03345 2.82152,-22.89228 -0.0808,-0.25039 -0.50446,-0.65808 -0.94142,-0.90596 -1.04523,-0.59301 -1.00287,-0.90649 0.1517,-1.12311 0.75126,-0.14094 1.02359,-0.3629 1.32228,-1.07775 0.53139,-1.27177 0.0573,-3.39778 -0.99158,-4.44659 -0.67159,-0.67159 -0.92006,-0.75634 -1.89539,-0.6464 -3.51526,0.39621 -5.98091,3.34063 -7.36071,8.78972 l -0.59108,2.33426 0.47199,3.78804 c 0.25959,2.08349 0.39497,3.91266 0.30083,4.06506 -0.30297,0.49025 -0.8192,0.29718 -1.436,-0.53711 -0.58854,-0.79602 -0.61381,-0.80332 -1.14284,-0.33072 -0.29755,0.2658 -1.34871,2.15698 -2.3359,4.20264 -0.98719,2.04562 -1.9811,3.87376 -2.20869,4.06267 -0.31978,0.26538 -0.60529,0.27665 -1.25674,0.0496 -1.04937,-0.36581 -1.57356,0.0311 -2.08415,1.57824 -0.19382,0.58727 -0.45043,1.12837 -0.57026,1.20243 -0.28649,0.17705 -0.26879,-2.40105 0.0252,-3.66687 0.26099,-1.12387 0.12474,-1.19245 -1.11607,-0.56184 -3.6486,1.85431 -9.9822,9.03182 -11.55567,13.09555 -1.14864,2.96625 -1.37763,3.40757 -1.76901,3.40757 -0.48791,0 -0.44452,-0.54549 0.16671,-2.09624 0.33899,-0.86003 0.42564,-1.38107 0.24791,-1.49093 -0.33321,-0.20594 -1.22637,0.56283 -1.44155,1.24079 -0.16403,0.51682 -0.91496,0.69668 -0.91496,0.21915 0,-1.12482 2.74135,-4.75297 4.37277,-5.78776 0.63505,-0.40275 1.65436,-1.37623 2.2651,-2.16331 0.61076,-0.78708 2.43403,-2.74082 4.05183,-4.34155 3.08557,-3.05329 6.16558,-5.11228 8.5717,-5.73034 1.34676,-0.34592 1.99158,-1.1026 3.3401,-3.91954 0.86064,-1.79774 0.94565,-2.18141 0.93822,-4.23333 -0.0189,-5.22288 -0.99171,-8.53864 -2.74982,-9.37287 -1.14988,-0.54565 -3.39989,-0.54168 -6.95669,0.0123 -2.6036,0.40551 -2.82469,0.40551 -3.12129,0 -0.2391,-0.32699 -0.74303,-0.43606 -2.00974,-0.43494 -2.74559,0.002 -3.45811,0.32871 -6.0206,2.75722 -1.27508,1.20838 -2.5809,2.33759 -2.90195,2.50936 -0.56544,0.3026 -0.57838,0.28019 -0.41801,-0.72279 0.22955,-1.43555 -0.20834,-2.16392 -1.30091,-2.16392 -0.86974,0 -2.02708,0.63026 -5.24642,2.85697 -1.71656,1.18732 -2.70933,1.35964 -3.21151,0.55732 -0.56089,-0.89644 -0.002,-1.72143 1.72826,-2.55151 2.75986,-1.32397 2.59164,-0.72033 2.658,-9.53373 0.0318,-4.22672 -0.0129,-7.75652 -0.0994,-7.8441 -0.0864,-0.0876 -0.66696,0.0206 -1.29003,0.24039 -1.41705,0.49995 -2.38927,0.51429 -2.38927,0.0352 0,-0.59852 0.57619,-0.88284 2.18282,-1.07712 l 1.52135,-0.18398 v -4.9493 c 0,-5.43295 -0.16903,-6.12536 -1.4955,-6.12536 -2.3907,0 -4.40267,4.16269 -4.85987,10.05416 -0.12982,1.67349 -0.41931,3.81662 -0.64331,4.7625 -0.52969,2.23684 -0.70921,16.17636 -0.23132,17.9615 0.28411,1.06114 0.25706,1.24228 -0.31602,2.11667 -1.1566,1.76472 -1.74927,4.55031 -1.90622,8.95985 -0.1631,4.58179 -0.29678,4.35663 2.09704,3.53298 2.94402,-1.01293 2.27219,0.61262 -0.76237,1.84423 l -1.48347,0.60208 0.16443,2.93053 c 0.4699,8.37459 2.99164,16.04327 6.51377,19.80829 l 1.57523,1.68395 -0.68747,1.69926 c -0.37812,0.93458 -1.04076,3.18743 -1.47259,5.00644 -1.06947,4.50506 -1.09093,4.55507 -1.47794,3.44488 z m 9.56733,-58.31946 c 0.89167,-0.67331 3.27475,-1.48069 4.37065,-1.48069 h 0.65418 l -0.18183,-7.20989 c -0.10002,-3.96558 -0.14812,-8.04333 -0.1069,-9.06198 0.16963,-4.19206 -0.11778,-12.43885 -0.45646,-13.0974 -0.58155,-1.13086 -1.4211,-1.70715 -2.48711,-1.70715 -2.0197,0 -3.75311,1.96514 -4.25,4.81807 -0.17383,0.99819 -0.37936,6.02906 -0.46739,11.44031 -0.25692,15.79483 -0.26326,15.41013 0.26742,16.21949 0.59319,0.90445 1.5277,0.93234 2.65747,0.0793 z m -0.25446,-7.09904 c -0.22518,-0.36433 0.4237,-0.72279 1.3172,-0.7276 0.47501,-0.003 0.71009,0.11463 0.64167,0.31988 -0.13927,0.4178 -1.74596,0.75224 -1.95887,0.40772 z m 0.0824,-12.48621 c -0.2029,-0.52874 0.44736,-0.99084 1.46045,-1.03788 1.20554,-0.056 1.33675,0.72025 0.18934,1.12022 -1.11903,0.3901 -1.47531,0.37232 -1.64978,-0.0824 z m 12.78784,17.84032 c 1.85796,-1.32297 2.6171,-4.91992 2.14858,-10.18037 -0.16241,-1.82351 -0.36827,-7.75017 -0.45749,-13.17042 -0.16132,-9.80123 -0.16564,-9.86023 -0.79298,-10.83972 -0.80164,-1.251561 -1.98552,-1.886981 -3.07129,-1.648511 -1.16461,0.25579 -2.95539,2.021311 -3.68326,3.631671 l -0.62529,1.38298 -0.035,13.75833 c -0.0373,14.63542 -0.0336,14.68146 1.21862,15.07913 0.43071,0.1367 0.5362,0.39751 0.5362,1.3254 0,1.05386 0.0638,1.16607 0.72761,1.27892 1.4995,0.25491 3.16785,-5.3e-4 4.03436,-0.61738 z m -3.175,-9.10166 c 0,-0.42659 0.56348,-0.68977 1.47685,-0.68977 0.71962,0 0.87874,0.64545 0.22131,0.89773 -0.75401,0.28935 -1.69815,0.17372 -1.69815,-0.20797 z m -0.91799,-10.46639 c -0.42789,-0.69233 1.06196,-1.46256 2.30208,-1.1902 0.5919,0.13 0.74475,0.29562 0.68165,0.73853 -0.0696,0.48813 -0.27943,0.58243 -1.44677,0.65011 -0.75597,0.0438 -1.44198,-0.0447 -1.53696,-0.19844 z m 14.1724,19.3929 c 1.72305,-0.68943 1.8728,-1.31839 1.54514,-6.48917 -0.43529,-6.86991 -1.51384,-17.90462 -1.9549,-20.00144 -0.70326,-3.34301 -1.77347,-4.8215 -3.49064,-4.8215 -0.97989,0 -2.26291,0.96388 -2.94746,2.21432 -0.40029,0.73118 -0.44638,1.63563 -0.39262,7.70758 0.0335,3.78354 0.19709,8.60557 0.36357,10.71562 0.21688,2.74902 0.22351,4.38732 0.0234,5.78035 -0.15361,1.06913 -0.21728,2.10542 -0.1415,2.30291 0.0758,0.19748 0.54571,0.59973 1.04426,0.89389 0.49855,0.29417 1.01603,0.82294 1.14991,1.17507 0.13387,0.35214 0.39994,0.70284 0.59123,0.77938 0.76018,0.30412 3.1758,0.15667 4.20952,-0.25692 z m -4.16083,-10.0076 c -0.10287,-0.26807 -0.0228,-0.55216 0.19436,-0.68966 0.58811,-0.3724 1.56234,-0.2789 1.73318,0.16635 0.20004,0.52131 0.10196,0.60823 -0.91609,0.81185 -0.64818,0.12964 -0.87591,0.0647 -1.01145,-0.28853 z m -0.62699,-10.67276 c 0,-0.44826 0.75285,-0.8844 1.37451,-0.79629 1.02627,0.14548 0.73861,0.86955 -0.38232,0.96232 -0.5457,0.0452 -0.99219,-0.0296 -0.99219,-0.16604 z m -22.53482,79.26122 c -0.0248,-0.1819 -0.0559,-1.0451 -0.0691,-1.91822 -0.0132,-0.87313 -0.12515,-2.15136 -0.2489,-2.84057 l -0.225,-1.25299 1.28624,0.39024 c 1.46135,0.44333 2.90222,0.51323 3.12579,0.1516 0.0831,-0.1344 -0.22368,-0.51118 -0.68165,-0.83727 -0.76507,-0.54478 -0.79526,-0.62027 -0.37174,-0.92996 0.46482,-0.33989 5.13477,-1.50673 7.21757,-1.8033 0.8491,-0.12092 1.12448,-0.0722 1.12448,0.19886 0,0.48998 -0.75718,1.13593 -1.88283,1.60626 -1.25126,0.52281 -1.79816,1.16527 -1.27516,1.49796 0.20893,0.1329 0.52488,0.18856 0.70213,0.12368 0.17724,-0.0649 0.39417,-0.002 0.48207,0.14062 0.0879,0.14221 -0.25452,0.43169 -0.76092,0.64328 -0.50638,0.21158 -1.19956,0.7226 -1.5404,1.13562 -0.34314,0.41579 -1.41581,1.08108 -2.40358,1.49074 -1.07723,0.44675 -2.09595,1.09522 -2.57159,1.63698 -0.78248,0.89119 -1.82089,1.19956 -1.90736,0.56639 z m -1.27776,-21.78076 c 0,-0.36388 3.0742,-3.94044 5.37554,-6.25369 2.80617,-2.82072 6.13543,-5.50466 10.53651,-8.49339 3.45492,-2.34633 6.78682,-4.29551 6.99214,-4.09019 0.12669,0.12668 -3.80947,3.3147 -8.54551,6.9215 -1.48881,1.13379 -4.27752,3.42899 -6.19681,5.1001 -5.61022,4.88474 -8.16187,7.01543 -8.16187,6.81541 z m 2.11667,-16.35628 c 0,-0.18154 3.89943,-2.62117 6.98526,-4.37012 4.53179,-2.56857 11.88853,-5.84491 12.26953,-5.46417 0.40433,0.40436 -10.45475,6.29337 -15.28604,8.28992 -1.09141,0.45101 -2.43086,1.00785 -2.97656,1.23746 -0.54571,0.22959 -0.99219,0.36777 -0.99219,0.30707 z m -5.00089,-23.48679 c -0.51866,-0.19187 -0.56234,-0.29195 -0.27736,-0.63535 0.42791,-0.51562 1.67526,-0.38952 1.78318,0.18025 0.10002,0.52803 -0.67527,0.76235 -1.50582,0.45509 z"
         style="stroke-width:0.264583" />
    </g>
  </g>
</svg>
