<?xml version="1.0" encoding="utf-8"?>
<!-- Generator: Adobe Illustrator 15.0.2, SVG Export Plug-In . SVG Version: 6.00 Build 0)  -->
<!DOCTYPE svg PUBLIC "-//W3C//DTD SVG 1.1//EN" "http://www.w3.org/Graphics/SVG/1.1/DTD/svg11.dtd" [
	<!ENTITY ns_extend "http://ns.adobe.com/Extensibility/1.0/">
	<!ENTITY ns_ai "http://ns.adobe.com/AdobeIllustrator/10.0/">
	<!ENTITY ns_graphs "http://ns.adobe.com/Graphs/1.0/">
	<!ENTITY ns_vars "http://ns.adobe.com/Variables/1.0/">
	<!ENTITY ns_imrep "http://ns.adobe.com/ImageReplacement/1.0/">
	<!ENTITY ns_sfw "http://ns.adobe.com/SaveForWeb/1.0/">
	<!ENTITY ns_custom "http://ns.adobe.com/GenericCustomNamespace/1.0/">
	<!ENTITY ns_adobe_xpath "http://ns.adobe.com/XPath/1.0/">
]>
<svg version="1.1" id="Ebene_1" xmlns:x="&ns_extend;" xmlns:i="&ns_ai;" xmlns:graph="&ns_graphs;"
	 xmlns="http://www.w3.org/2000/svg" xmlns:xlink="http://www.w3.org/1999/xlink" x="0px" y="0px" width="500.001px" height="500px"
	 viewBox="-125.192 -124.839 500.001 500" enable-background="new -125.192 -124.839 500.001 500" xml:space="preserve">
<metadata>
	<sfw  xmlns="&ns_sfw;">
		<slices></slices>
		<sliceSourceBounds  bottomLeftOrigin="true" width="500.001" height="500" y="170.339" x="47.308"></sliceSourceBounds>
	</sfw>
</metadata>
<g id="_x23_22409aff">
	<g>
		<path fill="#FFFFFF" d="M-90.492,107.881c4.66,1.96,9.399,3.74,14.24,5.2c-0.16,2.68-0.341,5.36-0.54,8.061
			c-4.301,19.738-5.295,40.16-2.9,60.119c1.362,11.352,7.48,21.5,12.48,31.66c3.06,7.021,8.041,13.385,14.72,16.861
			c8.79,4.576,17.449,4.416,29.114,2.82c1.17-0.16,3.74-1.732,4.766-2.32c7.456-4.277,14.479-10.541,17.14-19.182
			c0.84-2.02,1.7-4.02,2.58-6c1.34-9.318,0-18.639-1.84-27.779c-1.32,1.42-2.62,2.859-3.94,4.279c-3.119,2.76-7,3.041-10.68,1.141
			c-1.52-0.119-3.04-0.221-4.54-0.32c-0.12,4.32,1.211,8.947-0.399,12.98c-1.45,3.631-4.294,7.207-7.94,8.721
			c-4.859,2.018-9.081,0.77-11.12-1.141c-13.806-12.934-3.859-35.381-2.76-52.941c0.42-0.02,1.24-0.098,1.66-0.139
			c-0.101-6.34-0.88-12.98,1.66-18.98c1.92-4.699,2.899-9.68,3.26-14.74c4.72-1.279,9.52-2.34,14.28-3.5
			c1.479-0.319,4.42-0.979,5.88-1.319c3.6-1.021,7.3-1.66,11-2.261c0.06,2.101,0.12,4.221,0.18,6.32c7-0.899,11.02-7.06,16.66-10.52
			c5.72-3.521,12.24-5.36,18.2-8.42c3.739-0.28,7.479-0.5,11.22-0.681c2.6,4.601,5.62,9.04,7.24,14.101
			c-1.16,11.38-4.101,22.639-8.74,33.1c-1.04,3.6-2.1,7.199-3.061,10.82c-1.579,3.68-3.159,7.379-4.76,11.059
			c-0.74,2.82-1.46,5.641-2.34,8.422c-0.72,13.34-2,26.619-2.24,39.98c0.181,9.84-4.8,18.619-7.58,27.818
			c-0.699,4.721-1.68,9.42-3.119,13.98c-2.921,1.881-6.04,3.6-8.5,6.119c-2,3.881-2.54,8.34-3.641,12.541c7.96,2,16.12,3.24,23.88,6
			c9.761,0.48,19.58,1,29.32-0.041c4.86-0.619,8.2-4.439,11.52-7.66c0.12-5.68,0.061-11.34,0.32-17.02
			c0.78-12.359,5.74-23.84,8.12-35.879c1.28-5.9,3.92-11.381,6.58-16.762c6.12,13.461,5.439,28.422,4.78,42.842
			c-0.721,10.1-8.721,19.34-5.141,29.74c12.9,8.66,29.48,6.98,44.262,6.539c6.777-1.74,14.238-5.4,16.078-12.801
			c2.82-10.918-5.32-20.66-4.82-31.479c0.16-9.32-0.539-18.701,0.859-27.939c2.922-15.781,6.223-31.602,4.863-47.762
			c5.137,1.68,10.258,3.441,15.379,5.18c2.5,0.941,5,1.881,7.52,2.82c9.238,4.102,19.422,6.24,27.762,12.201
			c2.098,0.199,4.18,0.4,6.277,0.619c5.32,2.84,10.781,5.52,15.301,9.602c-0.238,9.779,0.742,19.639-0.859,29.34
			c-2.582,11.279-8.398,21.439-14.281,31.279c-3.398,4.721-7.18,9.221-9.559,14.619c8.379,17.9,32.059,20.561,49,15.4
			c4.16-2.299,7.418-5.9,10.918-9.041c1.383-7.359,2.98-14.738,2.562-22.279c-0.602-12.881,2.578-25.52,6.34-37.74
			c1.48,0.18,2.961,0.381,4.461,0.602c3.559,4.039,8.078,7.238,11.297,11.578c5.84,12.801,3.121,28-3.277,40.041
			c-1.859,5.18-1.102,10.84-1.16,16.24c6.539,7.398,16.98,5.461,25.598,7.879c6,0.121,11.902-0.98,17.801-2.02
			c5.219-2,10.242-4.58,14.539-8.219c4.203-14.041,0.383-28.301-0.02-42.541c-1.961-12.68-4.539-25.24-6.84-37.84
			c-1.02-10.119-2.938-20.16-3.18-30.361c-1.16-6.398-1.18-12.918,0.082-19.318c0.32-7.021,0.5-14.061,1.297-21.041
			c5.961,8.281,9.043,18.5,8.723,28.68c-0.102,4.66,0.801,9.262,1.918,13.781c-2.359,5.34-2.02,11.24-2,16.92
			c1.961,1.041,3.922,2.08,5.883,3.119c1.078,6.08,1.656,13.32,7.379,17.041c6,0.959,9.141-5.16,12.539-8.9
			c2.859-11.061-2.52-21.84-6.719-31.781c-4.121-8.559-6.141-17.859-8.742-26.918c-2.758-9.082-2.758-18.801-6.18-27.721
			c-5.699-10.26-6-22.3-9.18-33.38c-1.84-8.94-6.379-16.94-11.18-24.58c-5.039-8.181-13.578-13.101-20.398-19.58
			c-14.141-13.08-31.062-22.479-47.043-33.04c-14.098-8.14-29.457-14.02-45.02-18.76c-3.258-0.88-6.539-1.7-9.777-2.601
			c-18.582-2.56-37.32-5.479-56.121-3.7c-10.86,1.2-21.881,0.28-32.621,2.421c-6.6,0.899-13.38,1-19.979-0.101
			c-7.761-1.68-15.92-1.32-23.42-4.26c-2.66-0.88-5.341-1.7-8.021-2.58c-9.94-2.32-20.02-1.9-29.84,0.84
			c-12.16-0.62-24.3-5.52-36.42-2.56c-12.021,4.02-16.061,17.58-19.141,28.54c-10.02,15.1-14.359,32.899-20.8,49.64
			c-3.399,9.06-7.26,17.96-11.439,26.681c-2.24,2.039-3.833,4.933-6.473,6.273c-5.979,1.84-11.955,2.776-18.925,2.833
			c-1.959,0.016-4.7,0.284-6.46,1.163c1.02,1.561,1.993,2.038,3.57,3.03c2.322,1.461,5.187,1.5,7.907,1.899
			c4.46,0.88,9,1.08,13.52,1.301c-0.16,2.579-0.57,6.38-0.71,8.939c-5.9,0.96-11.499,1.089-17.47,1.54
			c-1.486,0.112-7.633-0.604-7.724,0.202C-97.739,103.82-91.743,107.097-90.492,107.881z"/>
		<path fill="#22409A" d="M-125.192-124.839v500h500.001v-500H-125.192z M-89.912,102.701c5.971-0.451,11.569-0.58,17.47-1.54
			c0.14-2.56,0.55-6.36,0.71-8.939c-4.52-0.221-9.06-0.421-13.52-1.301c-2.721-0.399-5.585-0.438-7.907-1.899
			c-1.577-0.992-2.551-1.47-3.57-3.03c1.76-0.879,4.501-1.147,6.46-1.163c6.97-0.057,12.945-0.993,18.925-2.833
			c2.64-1.341,4.232-4.234,6.473-6.273c4.18-8.721,8.04-17.621,11.439-26.681c6.44-16.74,10.78-34.54,20.8-49.64
			c3.08-10.96,7.12-24.521,19.141-28.54c12.12-2.96,24.26,1.939,36.42,2.56c9.82-2.74,19.899-3.16,29.84-0.84
			c2.68,0.88,5.36,1.7,8.021,2.58c7.5,2.939,15.659,2.58,23.42,4.26c6.6,1.101,13.38,1,19.979,0.101
			c10.74-2.141,21.761-1.221,32.621-2.421c18.801-1.779,37.539,1.141,56.121,3.7c3.238,0.9,6.52,1.721,9.777,2.601
			c15.562,4.74,30.922,10.62,45.02,18.76c15.98,10.561,32.902,19.96,47.043,33.04c6.82,6.479,15.359,11.399,20.398,19.58
			c4.801,7.64,9.34,15.64,11.18,24.58c3.18,11.08,3.48,23.12,9.18,33.38c3.422,8.92,3.422,18.639,6.18,27.721
			c2.602,9.059,4.621,18.359,8.742,26.918c4.199,9.941,9.578,20.721,6.719,31.781c-3.398,3.74-6.539,9.859-12.539,8.9
			c-5.723-3.721-6.301-10.961-7.379-17.041c-1.961-1.039-3.922-2.078-5.883-3.119c-0.02-5.68-0.359-11.58,2-16.92
			c-1.117-4.52-2.02-9.121-1.918-13.781c0.32-10.18-2.762-20.398-8.723-28.68c-0.797,6.98-0.977,14.02-1.297,21.041
			c-1.262,6.4-1.242,12.92-0.082,19.318c0.242,10.201,2.16,20.242,3.18,30.361c2.301,12.6,4.879,25.16,6.84,37.84
			c0.402,14.24,4.223,28.5,0.02,42.541c-4.297,3.639-9.32,6.219-14.539,8.219c-5.898,1.039-11.801,2.141-17.801,2.02
			c-8.617-2.418-19.059-0.48-25.598-7.879c0.059-5.4-0.699-11.061,1.16-16.24c6.398-12.041,9.117-27.24,3.277-40.041
			c-3.219-4.34-7.738-7.539-11.297-11.578c-1.5-0.221-2.98-0.422-4.461-0.602c-3.762,12.221-6.941,24.859-6.34,37.74
			c0.418,7.541-1.18,14.92-2.562,22.279c-3.5,3.141-6.758,6.742-10.918,9.041c-16.941,5.16-40.621,2.5-49-15.4
			c2.379-5.398,6.16-9.898,9.559-14.619c5.883-9.84,11.699-20,14.281-31.279c1.602-9.701,0.621-19.561,0.859-29.34
			c-4.52-4.082-9.98-6.762-15.301-9.602c-2.098-0.219-4.18-0.42-6.277-0.619c-8.34-5.961-18.523-8.1-27.762-12.201
			c-2.52-0.939-5.02-1.879-7.52-2.82c-5.121-1.738-10.242-3.5-15.379-5.18c1.359,16.16-1.941,31.98-4.863,47.762
			c-1.398,9.238-0.699,18.619-0.859,27.939c-0.5,10.818,7.641,20.561,4.82,31.479c-1.84,7.4-9.301,11.061-16.078,12.801
			c-14.781,0.441-31.361,2.121-44.262-6.539c-3.58-10.4,4.42-19.641,5.141-29.74c0.659-14.42,1.34-29.381-4.78-42.842
			c-2.66,5.381-5.3,10.861-6.58,16.762c-2.38,12.039-7.34,23.52-8.12,35.879c-0.26,5.68-0.2,11.34-0.32,17.02
			c-3.319,3.221-6.659,7.041-11.52,7.66c-9.74,1.041-19.56,0.521-29.32,0.041c-7.76-2.76-15.92-4-23.88-6
			c1.101-4.201,1.641-8.66,3.641-12.541c2.46-2.52,5.579-4.238,8.5-6.119c1.439-4.561,2.42-9.26,3.119-13.98
			c2.78-9.199,7.761-17.979,7.58-27.818c0.24-13.361,1.521-26.641,2.24-39.98c0.88-2.781,1.6-5.602,2.34-8.422
			c1.601-3.68,3.181-7.379,4.76-11.059c0.961-3.621,2.021-7.221,3.061-10.82c4.64-10.461,7.58-21.72,8.74-33.1
			c-1.62-5.061-4.641-9.5-7.24-14.101c-3.74,0.181-7.48,0.4-11.22,0.681c-5.96,3.06-12.48,4.899-18.2,8.42
			c-5.641,3.46-9.66,9.62-16.66,10.52c-0.06-2.1-0.12-4.22-0.18-6.32c-3.7,0.601-7.4,1.24-11,2.261c-1.46,0.34-4.4,1-5.88,1.319
			c-4.761,1.16-9.561,2.221-14.28,3.5c-0.36,5.061-1.34,10.041-3.26,14.74c-2.54,6-1.761,12.641-1.66,18.98
			c-0.42,0.041-1.24,0.119-1.66,0.139c-1.1,17.561-11.046,40.008,2.76,52.941c2.039,1.91,6.261,3.158,11.12,1.141
			c3.646-1.514,6.49-5.09,7.94-8.721c1.61-4.033,0.279-8.66,0.399-12.98c1.5,0.1,3.021,0.201,4.54,0.32
			c3.68,1.9,7.561,1.619,10.68-1.141c1.32-1.42,2.62-2.859,3.94-4.279c1.84,9.141,3.18,18.461,1.84,27.779
			c-0.88,1.98-1.74,3.98-2.58,6c-2.66,8.641-6.61,11.055-12.457,16.363c-1.948,1.77-6.181,4.357-9.448,5.139
			c-11.451,2.738-20.324,1.756-29.114-2.82c-6.679-3.477-11.66-9.84-14.72-16.861c-5-10.16-11.118-20.309-12.48-31.66
			c-2.395-19.959-1.4-40.381,2.9-60.119c0.199-2.7,0.38-5.381,0.54-8.061c-4.841-1.46-9.58-3.24-14.24-5.2
			c-1.251-0.784-7.247-4.061-7.144-4.978C-97.545,102.098-91.398,102.813-89.912,102.701z"/>
	</g>
	<path fill="#22409A" stroke="#22409A" stroke-width="0.1875" d="M-43.412,100.801c7.92-1.979,15.279-5.52,22.979-8.159
		c6.141-0.7,12.28,1.399,18.44,1.699c-0.12,1.74-0.24,3.48-0.34,5.221c-6.561-0.141-12.92,1.399-19.141,3.34
		c-0.52,0.68-1.56,2.06-2.08,2.74c-4.12,0.3-8.26,0.8-11.96,2.739c-7.14,4.521-15.68,4.08-23.739,3.5
		c-2.601-1.06-5.312-1.567-8.013-2.348c-1.819-0.525-5.388-1.892-7.228-2.272c7-1.92,14.38-2.02,21.34-4.18
		C-49.893,102.321-46.633,101.601-43.412,100.801z"/>
	<path fill="#22409A" stroke="#22409A" stroke-width="0.1875" d="M-74.212,171.081c-0.86-19.139,1.22-38.18,4.06-57.06
		c4.76,0.859,9.5,1.76,14.28,2.579c1.319,1.061,2.64,2.141,3.979,3.2c-1.52,8.981-2.84,17.981-3.18,27.101
		c3.04-0.301,6.06-0.6,9.1-0.881c-0.2,2.4-0.42,4.82-0.62,7.24c-1.34-1.08-4-3.24-5.319-4.318c-3.2,4.459-5.54,9.418-7.16,14.658
		c3.46,0.221,6.939,0.439,10.399,0.641c-3.039,12.42-4.265,26.611,3.2,37.119c0.312,0.439,1.199,1.07,1.521,1.5
		c4.534,6.053,11.512,7.82,17.52,5.861c7.12-2.322,9.101-11.521,10.88-18.721c3.66,3.26,7.681,5.359,11.92,1.359
		c-0.199,4.781,2.444,10.568-0.52,14.32c-2.211,2.799-7.718,0.385-10.36,2.801c-1.854,1.695,2.493,6.283,0.654,8.014
		c-6.166,5.799-4.167,10.832-21,10.332c-3.578-0.105-12.667-1-16-3.666C-64.303,212.407-76.133,190.142-74.212,171.081z"/>
	<path fill="#22409A" stroke="#22409A" stroke-width="0.1875" d="M54.228,118.661c3.6,6.16,7.04,12.439,11.04,18.379
		c4.32,5.5,9.64,10.082,14.54,15.041c0.66,11.74,2.46,23.381,3.54,35.041c-4.04,13.32-9.18,26.34-12.6,39.859
		c-1.5,4.58-2.94,9.199-4.46,13.779c-4.04,10.16-1.561,21.279-4.48,31.682c-1.06-0.062-3.18-0.201-4.24-0.262
		c-3.899-6.52-9.779-11.359-16.819-14.16c-2.601,1.24-5.2,2.461-7.78,3.74c-0.7,0.08-2.101,0.221-2.8,0.279
		c-2.261-1.398-4.521-2.779-6.78-4.16c1.16-5.578,2.38-11.139,3.62-16.699c1.38-8.859,5.66-17,6.56-25.959
		c1.181-16.141,1.141-32.521,4.66-48.361C45.588,151.562,49.748,134.962,54.228,118.661z"/>
	<path fill="#22409A" stroke="#22409A" stroke-width="0.1875" d="M234.887,129.901c1.602,2.979,4.062,4.699,7.363,5.139
		c-1.102,2.361-2.184,4.701-3.223,7.082c-3.16,0.039-6.32,0.1-9.461,0.16c0.141-0.801,0.422-2.361,0.562-3.16
		C231.906,136.142,233.469,133.062,234.887,129.901z"/>
	<path fill="#22409A" stroke="#22409A" stroke-width="0.1875" d="M335.828,149.581c0.84,0.18,2.5,0.561,3.32,0.74
		c1.238,13.779,11.359,24.961,11.461,38.879c1.598,3.781,0.379,7.641-0.859,11.301c-1.941-0.121-3.883-0.24-5.82-0.359
		c0-3.262-0.023-6.52,0-9.762c-2.223-2.199-4.441-4.379-6.68-6.539c1.258-7.279,2.938-14.6,0.539-21.859l-1.922,0.119
		C335.867,157.921,335.867,153.761,335.828,149.581z"/>
	<path fill="#22409A" stroke="#22409A" stroke-width="0.1875" d="M-2.712,187.761C-1.772,188.681-1.772,188.681-2.712,187.761z"/>
	<path fill="#22409A" stroke="#22409A" stroke-width="0.1875" d="M14.008,262.521c2.2-0.18,4.42-0.359,6.62-0.52
		c2.54,2.199,4.899,4.721,7.939,6.26c5.54-0.76,10.96-2.42,16.62-2.199c2.12,1.699,4.28,3.4,6.46,5.061
		c-0.08,1.52-0.14,3.039-0.22,4.559c-2.9,0-5.78,0-8.68-0.02c-9.94-1.34-19.561-4.02-29.36-6.061
		C13.588,267.241,13.788,264.88,14.008,262.521z"/>
	<path fill="#22409A" stroke="#22409A" stroke-width="0.1875" d="M200.129,263.581c4.66-0.1,9.16,1.041,13.32,3.1
		c0.098,2.58,0.18,5.16,0.301,7.762c1.5-0.102,4.539-0.281,6.059-0.361c0.18-2.42,0.359-4.82,0.559-7.24
		c1.742-0.18,3.48-0.359,5.223-0.539c1.16,0.76,3.477,2.26,4.637,3.02c-0.898,3.699-1.379,7.939-4.32,10.699
		c-4.117,0.359-8.098-1.078-12.039-2v-1.059c-5.141-1.582-9.598-4.602-13.801-7.84C200.09,267.741,200.109,264.962,200.129,263.581z
		"/>
</g>
<g id="_x23_f6f8fbff">
	<path fill="#F6F8FB" stroke="#F6F8FB" stroke-width="0.1875" d="M130.789-10.039c2.961,0.021,5.918,0.08,8.879,0.16
		c0,1.92,0,3.82,0,5.74c-1.738-0.061-3.48-0.12-5.199-0.181C133.227-6.219,132.008-8.139,130.789-10.039z"/>
	<path fill="#F6F8FB" stroke="#F6F8FB" stroke-width="0.1875" d="M149.809-9.639c1.039-0.12,3.098-0.36,4.141-0.48l-0.141,2.58
		c1.461-0.04,4.379-0.1,5.84-0.12c0.059,0.96,0.16,2.881,0.219,3.84c-3.199-0.239-6.398-0.459-9.598-0.659
		C150.109-6.199,149.969-7.919,149.809-9.639z"/>
	<path fill="#F6F8FB" stroke="#F6F8FB" stroke-width="0.1875" d="M73.788-2.778c3.02-1.74,6.039-3.44,9.039-5.2
		c6.12,0,12.2,0.899,18.141,2.3c5.859,3,11.62,6.2,17.04,9.92c-0.12,3.3-0.28,6.62-0.44,9.92c-1.6,0.061-4.779,0.2-6.359,0.28
		c-3.96-4.78-8.641-9.141-14.36-11.7c-6.66-1.44-13.56-0.48-20.32-0.62C75.628,0.481,74.708-1.139,73.788-2.778z"/>
	<path fill="#F6F8FB" stroke="#F6F8FB" stroke-width="0.1875" d="M63.168,31.642c3.02-1.521,6.02-3.041,9.04-4.561
		c-0.12,3.88-0.24,7.78-0.36,11.66c-2.46-0.04-4.9-0.1-7.34-0.16c-5.96,2.92-11.22,7.04-15.58,12.04
		c-2.021-0.82-8.021,1.101-5.34-3.26c-0.04-4,4.96-4.3,7.5-6.181c2.08-3.26,2.56-9.279,7.64-8.92
		C59.827,32.121,62.067,31.801,63.168,31.642z"/>
	<path fill="#F6F8FB" stroke="#F6F8FB" stroke-width="0.1875" d="M264.988,31.241c0.461-0.38,1.398-1.16,1.859-1.54
		c0.719,0.88,2.141,2.62,2.859,3.5c-0.059,0.84-0.16,2.54-0.219,3.399c-1.621,1.86-3.238,3.74-4.82,5.641
		c-4.262-0.7-8.48-1.58-12.699-2.44c0.059,1.561,0.219,4.681,0.281,6.261c-2.32-1-4.66-1.961-7-2.92
		c0.438-0.32,1.359-0.961,1.816-1.301c0.98-1.56,1.82-4.68,4.301-3.319C256.867,39.321,260.449,33.461,264.988,31.241z"/>
	<path fill="#F6F8FB" stroke="#F6F8FB" stroke-width="0.1875" d="M236.027,56.701c2.539-3.58,5.562-6.9,10.082-7.78
		c-0.281,1.94-0.562,3.88-0.859,5.801c-4.66,7-3.781,15.76-5.543,23.64c-2.117-0.061-6.34-0.16-8.438-0.22
		c0.199-4.521,1.758-8.721,4.137-12.541C235.648,62.642,235.848,59.661,236.027,56.701z"/>
	<path fill="#F6F8FB" stroke="#F6F8FB" stroke-width="0.1875" d="M161.449,68.562c-0.043-6.761-5.16-17.761,4.539-20.08
		c0.262,5.899-0.32,12.04,2.16,17.58c3.32,7.96,1.441,16.68,1.719,25.02c-1.418-0.359-4.277-1.06-5.699-1.42
		c-0.461-3.08-0.578-6.16-0.719-9.26c-2.52-0.86-5-1.721-7.5-2.58c0.66-4.46-3.883-12.8,4.141-12.78c0.039,1.3,0.078,3.9,0.098,5.2
		c1.762-0.42,3.539-0.84,5.32-1.26C164.488,68.861,162.469,68.661,161.449,68.562z"/>
	<path fill="#F6F8FB" stroke="#F6F8FB" stroke-width="0.1875" d="M94.688,60.081c1.64-3.72,6.021-1.82,9.08-2.22
		c-0.12,0.819-0.32,2.5-0.42,3.319c-0.62,1.141-1.86,3.44-2.48,4.58c-2.54,0.36-5.079,0.721-7.6,1.061c0.18-2.26,0.36-4.54,0.56-6.8
		L94.688,60.081z"/>
	<path fill="#F6F8FB" stroke="#F6F8FB" stroke-width="0.1875" d="M101.607,70.241c4.22-1.46,7.681,0.2,10.061,3.88
		c-0.061,1.04-0.141,3.16-0.181,4.22c-2.14-0.119-4.279-0.24-6.42-0.359C103.928,75.401,102.768,72.821,101.607,70.241z"/>
	<path fill="#F6F8FB" stroke="#F6F8FB" stroke-width="0.1875" d="M235.309,88.961c2.52-3.3,4.961-7.02,9.32-7.939
		c-0.223,2.72-0.422,5.479-0.641,8.22c5.121,8.06-0.398,19.18-7.641,24c-0.141-1.32-0.418-3.98-0.559-5.3
		c-1.68,0.04-5.062,0.12-6.762,0.159c0.379-3.079,0.922-6.119,1.641-9.119c2.859-0.82,5.82-1.26,8.762-1.74
		c0.078-0.8,0.219-2.42,0.297-3.22C238.25,92.341,236.789,90.642,235.309,88.961z"/>
	<path fill="#F6F8FB" stroke="#F6F8FB" stroke-width="0.1875" d="M215.566,90.021c3.082,2.76,6.703,5.22,8.762,8.939
		c-1.48,5.04-3.719,9.8-5.621,14.681C214.988,106.281,215.609,98.001,215.566,90.021z"/>
	<path fill="#F6F8FB" stroke="#F6F8FB" stroke-width="0.1875" d="M169.727,95.681c5.562,0.561,11.082,1.461,16.602,2.4l0.059,3.52
		c-3.539,1.541-7.059,3.181-10.52,4.881c-0.777,3.399-1.559,6.819-2.277,10.24l-4.16-0.4
		C169.688,109.441,169.609,102.562,169.727,95.681z"/>
	<path fill="#F6F8FB" stroke="#F6F8FB" stroke-width="0.1875" d="M146.066,105.161c3.422,1.04,6.762,2.26,10.141,3.46
		c-0.219,1.66-0.438,3.36-0.66,5.04c-1.238,0.061-3.699,0.18-4.918,0.24c0.078,4.979-2.941,8.58-6.621,11.479
		c0.02,2.762,0.039,5.541,0.039,8.301c-2.68-1.58-5.297-3.199-7.918-4.879c-0.961-0.301-2.922-0.922-3.879-1.24
		c-0.102-1.721-0.203-3.461-0.301-5.181c2.539-0.819,5.059-1.659,7.617-2.46c0.801-2.6,1.641-5.199,2.461-7.8
		c0.941-0.04,2.801-0.1,3.723-0.14C145.828,110.281,145.988,106.861,146.066,105.161z"/>
	<path fill="#F6F8FB" stroke="#F6F8FB" stroke-width="0.1875" d="M208.77,120.581c2.879,0.36,5.699,1.16,8.539,1.8
		c1.258,4.2,3.578,8.401,2.82,12.921c-1.422,4.76-3.699,9.18-5.641,13.719c-0.859,5.859-2.602,11.5-4.781,16.98
		c-1.938,0.1-5.777,0.32-7.699,0.42c-1.5-1.619-3.02-3.221-4.539-4.82c-1.121-8.799,0.039-17.721,5.719-24.84
		C204.25,131.161,205.367,125.321,208.77,120.581z"/>
	<path fill="#F6F8FB" stroke="#F6F8FB" stroke-width="0.1875" d="M126.207,156.562c1.641-0.182,3.281-0.34,4.941-0.521
		c0.602,0.941,1.781,2.82,2.359,3.762c0.102,1.1,0.281,3.26,0.359,4.34c-1.48,0-4.418,0-5.898,0c-0.48,0.68-1.422,2.059-1.88,2.76
		C126.089,163.442,126.147,160.001,126.207,156.562z"/>
	<path fill="#F6F8FB" stroke="#F6F8FB" stroke-width="0.1875" d="M275.449,195.942c1.098-0.021,3.258-0.041,4.34-0.062
		c-0.742,2.721-0.699,5.342,0.117,7.861c2.582,1.42,5.383,2.4,8.16,3.381c0.102,3.879,0.223,7.758,0.301,11.639
		c-2.02-0.221-4.039-0.439-6.039-0.66c-0.359-4.039-0.102-8.158-1.078-12.119c-0.941,0.18-2.801,0.58-3.723,0.779l0.859-2.881
		l-2.52,0.201C275.727,201.36,275.59,198.642,275.449,195.942z"/>
	<path fill="#F6F8FB" stroke="#F6F8FB" stroke-width="0.1875" d="M124.107,222.981c2.779,1.66,6.002,3,7.92,5.801
		c-1.18,4.578-3.059,8.959-4.621,13.439c-2.879-1.682-5.738-3.381-8.618-5c-3.641-1.301-6.82-3.381-8.061-7.32
		c4.4-0.1,8.8,0.061,13.18,0.299C123.968,228.401,124.048,224.782,124.107,222.981z"/>
	<path fill="#F6F8FB" stroke="#F6F8FB" stroke-width="0.1875" d="M310.027,256.681c1.52,0.041,3.062,0.102,4.602,0.16
		c1.359,1.76,2.738,3.52,4.121,5.301c-2.703,1.359-5.684,1.939-8.66,2.301C310.027,261.841,310.027,259.261,310.027,256.681z"/>
</g>
<g>
	<path fill="none" d="M111.668,74.121c-2.38-3.68-5.841-5.34-10.061-3.88c1.16,2.58,2.32,5.16,3.46,7.74
		c2.141,0.119,4.28,0.24,6.42,0.359C111.527,77.281,111.607,75.161,111.668,74.121z"/>
	<path fill="none" d="M118.788,237.222c2.88,1.619,5.739,3.318,8.618,5c1.562-4.48,3.441-8.861,4.621-13.439
		c-1.918-2.801-5.141-4.141-7.92-5.801c-0.06,1.801-0.14,5.42-0.2,7.219c-4.38-0.238-8.779-0.398-13.18-0.299
		C111.968,233.841,115.147,235.921,118.788,237.222z"/>
	<path fill="none" d="M103.768,57.861c-3.06,0.399-7.44-1.5-9.08,2.22l-0.86-0.06c-0.199,2.26-0.38,4.54-0.56,6.8
		c2.521-0.34,5.06-0.7,7.6-1.061c0.62-1.14,1.86-3.439,2.48-4.58C103.447,60.361,103.647,58.681,103.768,57.861z"/>
	<path fill="none" d="M139.668-9.879c-2.961-0.08-5.918-0.14-8.879-0.16c1.219,1.9,2.438,3.82,3.68,5.72
		c1.719,0.061,3.461,0.12,5.199,0.181C139.668-6.059,139.668-7.959,139.668-9.879z"/>
	<path fill="none" d="M159.867-3.819c-0.059-0.959-0.16-2.88-0.219-3.84c-1.461,0.021-4.379,0.08-5.84,0.12l0.141-2.58
		c-1.043,0.12-3.102,0.36-4.141,0.48c0.16,1.72,0.301,3.439,0.461,5.16C153.469-4.278,156.668-4.059,159.867-3.819z"/>
	<path fill="none" d="M-0.192,39.121c-0.12,1.14,0.335,3.742-0.46,4.54c-1.406,1.411-3.96,0.46-5.94,0.68
		c0-0.939-0.486-2.984,0.021-3.8c1.86-2.993,6.28-3.14,9.42-4.74c-1.3-2.18-2.62-4.319-3.92-6.5c-0.46,0.5-1.38,1.48-1.84,1.98
		c-2.42,1.5-4.8,3.04-7.2,4.58c0.5,4.78,0.2,9.56-1.98,13.92c5.92,0.24,13.479,4.592,17.74,0.479c2.32-2.239,0.3-6.42,0.4-9.64
		c0.92-0.64,2.779-1.94,3.7-2.58c0.06-1.04,0.199-3.1,0.279-4.12c-1.76,0.16-3.52,0.34-5.26,0.5
		C3.147,36.021,1.487,37.581-0.192,39.121z"/>
	<path fill="none" d="M96.848,2.741c5.72,2.56,10.4,6.92,14.36,11.7c1.58-0.08,4.76-0.22,6.359-0.28c0.16-3.3,0.32-6.62,0.44-9.92
		c-5.42-3.72-11.181-6.92-17.04-9.92c-5.94-1.4-12.021-2.3-18.141-2.3c-3,1.76-6.02,3.46-9.039,5.2c0.92,1.64,1.84,3.26,2.739,4.899
		C83.288,2.261,90.188,1.301,96.848,2.741z"/>
	<path fill="none" d="M85.027,111.081c0.66-5.18,1.24-10.359,2.36-15.46c0.22-1.58,0.46-3.16,0.68-4.74c1.141-2.6,2.28-5.2,3.46-7.8
		c1.24-3.82,2.4-7.7,3.221-11.64c-3.62,1.54-7.141,3.26-10.7,4.96c-3.04,5.5-6.721,10.939-6.82,17.46
		c-1.64,2.979-3.34,5.92-5.08,8.819c-0.24,1.061-0.72,3.181-0.96,4.24c-2.42,4.141-3.76,8.721-4.02,13.5
		c1.26,0.62,2.52,1.26,3.779,1.88c1.4-3.12,2.801-6.26,4.38-9.3c0.66-2.7,1.28-5.4,1.961-8.08
		C78.208,116.741,83.147,120.921,85.027,111.081z"/>
	<path fill="none" d="M131.148,156.04c-1.66,0.182-3.301,0.34-4.941,0.521c-0.06,3.439-0.118,6.881-0.118,10.34
		c0.458-0.701,1.399-2.08,1.88-2.76c1.48,0,4.418,0,5.898,0c-0.078-1.08-0.258-3.24-0.359-4.34
		C132.93,158.86,131.75,156.981,131.148,156.04z"/>
	<path fill="none" d="M58.728,32.261c-5.08-0.359-5.56,5.66-7.64,8.92c-2.54,1.881-7.54,2.181-7.5,6.181
		c-2.681,4.36,3.319,2.439,5.34,3.26c4.36-5,9.62-9.12,15.58-12.04c2.439,0.061,4.88,0.12,7.34,0.16c0.12-3.88,0.24-7.78,0.36-11.66
		c-3.021,1.52-6.021,3.04-9.04,4.561C62.067,31.801,59.827,32.121,58.728,32.261z"/>
	<path fill="none" d="M318.75,262.142c-1.383-1.781-2.762-3.541-4.121-5.301c-1.539-0.059-3.082-0.119-4.602-0.16
		c0,2.58,0,5.16,0.062,7.762C313.066,264.081,316.047,263.501,318.75,262.142z"/>
	<path fill="none" d="M236.027,56.701c-0.18,2.96-0.379,5.94-0.621,8.899c-2.379,3.82-3.938,8.021-4.137,12.541
		c2.098,0.06,6.32,0.159,8.438,0.22c1.762-7.88,0.883-16.64,5.543-23.64c0.297-1.921,0.578-3.86,0.859-5.801
		C241.59,49.801,238.566,53.121,236.027,56.701z"/>
	<path fill="none" d="M264.988,31.241c-4.539,2.22-8.121,8.08-13.621,7.28c-2.48-1.36-3.32,1.76-4.301,3.319
		c-0.457,0.34-1.379,0.98-1.816,1.301c2.34,0.959,4.68,1.92,7,2.92c-0.062-1.58-0.223-4.7-0.281-6.261
		c4.219,0.86,8.438,1.74,12.699,2.44c1.582-1.9,3.199-3.78,4.82-5.641c0.059-0.859,0.16-2.56,0.219-3.399
		c-0.719-0.88-2.141-2.62-2.859-3.5C266.387,30.081,265.449,30.861,264.988,31.241z"/>
	<path fill="none" d="M279.906,203.741c-0.816-2.52-0.859-5.141-0.117-7.861c-1.082,0.021-3.242,0.041-4.34,0.062
		c0.141,2.699,0.277,5.418,0.418,8.139l2.52-0.201l-0.859,2.881c0.922-0.199,2.781-0.6,3.723-0.779
		c0.977,3.961,0.719,8.08,1.078,12.119c2,0.221,4.02,0.439,6.039,0.66c-0.078-3.881-0.199-7.76-0.301-11.639
		C285.289,206.142,282.488,205.161,279.906,203.741z"/>
	<path fill="none" d="M145.75,111.981c-0.922,0.04-2.781,0.1-3.723,0.14c-0.82,2.601-1.66,5.2-2.461,7.8
		c-2.559,0.801-5.078,1.641-7.617,2.46c0.098,1.72,0.199,3.46,0.301,5.181c0.957,0.318,2.918,0.939,3.879,1.24
		c2.621,1.68,5.238,3.299,7.918,4.879c0-2.76-0.02-5.539-0.039-8.301c3.68-2.898,6.699-6.499,6.621-11.479
		c1.219-0.061,3.68-0.18,4.918-0.24c0.223-1.68,0.441-3.38,0.66-5.04c-3.379-1.2-6.719-2.42-10.141-3.46
		C145.988,106.861,145.828,110.281,145.75,111.981z"/>
	<path fill="none" d="M244.629,81.021c-4.359,0.92-6.801,4.64-9.32,7.939c1.48,1.681,2.941,3.38,4.418,5.061
		c-0.078,0.8-0.219,2.42-0.297,3.22c-2.941,0.48-5.902,0.92-8.762,1.74c-0.719,3-1.262,6.04-1.641,9.119
		c1.699-0.039,5.082-0.119,6.762-0.159c0.141,1.319,0.418,3.979,0.559,5.3c7.242-4.82,12.762-15.94,7.641-24
		C244.207,86.501,244.406,83.741,244.629,81.021z"/>
	<path fill="none" d="M168.148,66.062c-2.48-5.54-1.898-11.681-2.16-17.58c-9.699,2.319-4.582,13.319-4.539,20.08
		c1.02,0.1,3.039,0.3,4.059,0.42c-1.781,0.42-3.559,0.84-5.32,1.26c-0.02-1.3-0.059-3.9-0.098-5.2
		c-8.023-0.02-3.48,8.32-4.141,12.78c2.5,0.859,4.98,1.72,7.5,2.58c0.141,3.1,0.258,6.18,0.719,9.26
		c1.422,0.36,4.281,1.061,5.699,1.42C169.59,82.741,171.469,74.021,168.148,66.062z"/>
	<path fill="none" d="M169.727,95.681c-0.117,6.881-0.039,13.761-0.297,20.641l4.16,0.4c0.719-3.421,1.5-6.841,2.277-10.24
		c3.461-1.7,6.98-3.34,10.52-4.881l-0.059-3.52C180.809,97.142,175.289,96.241,169.727,95.681z"/>
	<path fill="none" d="M208.77,120.581c-3.402,4.74-4.52,10.58-5.582,16.18c-5.68,7.119-6.84,16.041-5.719,24.84
		c1.52,1.6,3.039,3.201,4.539,4.82c1.922-0.1,5.762-0.32,7.699-0.42c2.18-5.48,3.922-11.121,4.781-16.98
		c1.941-4.539,4.219-8.959,5.641-13.719c0.758-4.52-1.562-8.721-2.82-12.921C214.469,121.741,211.648,120.941,208.77,120.581z"/>
	<path fill="none" d="M215.566,90.021c0.043,7.979-0.578,16.26,3.141,23.62c1.902-4.881,4.141-9.641,5.621-14.681
		C222.27,95.241,218.648,92.781,215.566,90.021z"/>
	<path fill="#22409A" d="M332.547,132.661c0.461,0.061,1.359,0.199,1.82,0.26c-0.418-3.26-0.84-6.5-1.359-9.72
		c-6.258-13.36-9.801-27.68-11.719-42.26c-2.562-7.2-5.18-14.46-8.961-21.12c-5.441-8.54-14.359-13.88-21.52-20.78
		c-16.5-14.979-36.082-25.6-55.121-36.88c-18.418-9.48-38.898-13.939-59.098-17.76c-11.883-1.061-23.922-3.38-35.82-1.28
		c-5.762,0.979-11.602,1.08-17.422,1.2c0.96,3.64,1.96,7.24,2.879,10.88c3.961,2.5,7.801,5.2,11.66,7.82
		c-0.137,1.359-0.277,2.72-0.418,4.079c-12.501,8.561-20.001,21.961-29.901,33.061c-7.2,7.76-10.819,19.16-21.58,23.08
		c-0.06-1.94-0.12-3.9-0.18-5.84c4.7-5.301,9.68-10.38,13.8-16.16c1.96-4.82-0.7-9.88-1.939-14.54c-1.62-0.28-4.88-0.88-6.5-1.16
		c1.02-2.34,2.18-4.6,3.52-6.76c3.84-1.601,7.76,0.5,11.44,1.56c-0.9,4.32-1.9,8.62-2.521,12.98c3.86-1.88,6.46-5.26,9.04-8.521
		c5.2-6.72,11.18-12.779,17.122-18.859c-0.121-0.681-0.32-2.04-0.441-2.72c-4.221-2.561-8.381-5.221-12.601-7.761
		c-3.4-1.28-6.78-2.56-10.16-3.819c-9.96-6.721-22.24-6.341-33.3-2.881c-2.78,2.36-5.66,4.58-8.5,6.86
		c-5.74,0.92-11.54,0.68-17.3,0.479c0.14-1.659,0.3-3.3,0.439-4.959c1.181-0.841,3.521-2.5,4.681-3.341
		c3.819,0.8,7.54,1.9,11.319,2.86c-0.159-1.34-0.5-4.04-0.659-5.4c1.3,0.381,3.92,1.101,5.22,1.461c-0.38-0.721-1.12-2.16-1.5-2.9
		c-8.641-2.38-17.08-6.46-26.24-6.12c-12.64,0.8-25.56-1.06-37.76,3.26c-1.061-2.22-2.24-4.38-3.521-6.479
		c-11.04-1.54-23.479,7.18-24,18.68c1.16,4.18,4.44,7.82,4.021,12.38c-2.88,0.601-5.76,1.06-8.66,1.4
		c-7.62,10.68-12.74,23.08-13.6,36.26c-4.94,13.22-12.4,25.26-18.12,38.12c-0.721,1.88-1.44,3.76-2.16,5.64
		c-1.601,4.34-2.82,8.82-3.64,13.38c4.579-1.06,9.159-2.14,13.6-3.68c2.479-0.26,4.96-0.52,7.46-0.74
		c1.46-1.74,2.94-3.479,4.38-5.24c6.16-1.58,12.28-3.26,18.46-4.739c1.8-2.521,3.64-5.021,5.46-7.521
		c1.72-0.279,3.46-0.54,5.22-0.82c-0.04,1.181-0.1,3.541-0.14,4.721c-0.979-0.021-2.96-0.021-3.939-0.021
		c-0.021,1.9-0.021,3.82-0.04,5.74c4.56,0.2,9.14,0.601,13.579,1.7c4.74-2.4,9.44-4.92,14.24-7.22c-0.42,5.54-4.62,8.96-7.6,13.1
		c-0.28,2.66-0.4,5.32-0.34,8c3.38-2.94,6.14-6.521,7.399-10.88c8-1.641,15.641-4.76,23.8-5.6c1.461,1.459,2.94,2.92,4.4,4.38
		c0.2-1.82,0.6-5.48,0.82-7.32c1.18,0.021,3.58,0.06,4.779,0.06c1.5-2.039,3.021-4.08,4.58-6.1c-0.1-2.6-0.199-5.2-0.3-7.8
		c2.22-0.9,4.44-1.761,6.66-2.64c0.06-1.421,0.2-4.28,0.28-5.7c2.779-0.04,5.56-0.061,8.359-0.061
		c-0.199-2.819-0.399-5.64-0.64-8.46c-1.24-2.54-2.4-5.14-3.56-7.72c2.479,0.1,4.939,0.22,7.42,0.34
		c2.22,6.16,2.779,12.7,2.52,19.22c2.12,6.101,4.521,12.08,6.62,18.2c-1.94-0.58-5.86-1.72-7.82-2.3c-1.64-2.94-2.46-6.24-3.58-9.4
		c-1,0.181-3.02,0.54-4.04,0.721c0.36,4.699,2.461,8.859,5.261,12.56c3.739,1.021,5.34,3.88,5.54,7.58
		c-0.86,1.68-2.58,5.04-3.44,6.72c-2.76-0.74-5.479-1.6-8.16-2.56c-1.02-0.22-3.04-0.66-4.06-0.88c-2.76-3.021-5.62-5.96-8.561-8.82
		c-2.359,3.46-1.52,6.98,1.12,10c2.3,3.84,4.34,7.82,6.08,11.939c6.7,11.32,12.62,23.381,21.98,32.82
		c0.387-0.021,0.776-0.031,1.164-0.053c0,0-0.062-1.445-0.084-1.447c-0.54-11.82,0.04-23.68-0.88-35.5
		c-0.681,2.68-1.301,5.38-1.961,8.08c-1.579,3.04-2.979,6.18-4.38,9.3c-1.26-0.62-2.52-1.26-3.779-1.88
		c0.26-4.779,1.6-9.359,4.02-13.5c0.24-1.06,0.72-3.18,0.96-4.24c1.74-2.899,3.44-5.84,5.08-8.819c0.1-6.521,3.78-11.96,6.82-17.46
		c3.56-1.7,7.08-3.42,10.7-4.96c-0.82,3.939-1.98,7.819-3.221,11.64c-1.18,2.6-2.319,5.2-3.46,7.8c-0.22,1.58-0.46,3.16-0.68,4.74
		c-1.12,5.101-1.7,10.28-2.36,15.46c-1.88,9.84,0.812,19.877,0.653,29.838c-0.036-0.004-0.091,0.623-0.053,0.621
		c-0.96,18.801,3.819,37.182,4.439,55.881c1.3,8.041,5.8,15.361,5.84,23.6c0.28,11.381-0.159,22.762-0.399,34.141
		c2.72-2.76,5.04-6.199,9.2-6.98c-0.761,4.859-2.28,9.561-3.44,14.34c3.46-0.18,7.12-0.1,10.12-2.141
		c3.04-0.158,6.08-0.199,9.14-0.18c1.681,1.602,2.92,4.762,5.84,4.021c3.281-2.42,5.801-6.08,10.141-6.779
		c-0.82,4.619-3.18,8.699-5.68,12.598c-2.699,0.102-5.4,0.221-8.101,0.32c-2.06-1.578-4.04-3.279-6.28-4.6
		c-3.38,0.381-6.06,2.66-8.899,4.279c-0.82,0.041-2.48,0.102-3.3,0.141c-4.061-2.898-8.2-6.939-13.66-5.801
		c-0.58,2.361-0.92,4.781-1.28,7.182c3.82,1.439,7.66,2.84,11.48,4.318c9.52,0.422,19.06,0.32,28.599,0.281
		c3.68-2.58,7.34-5.199,10.781-8.1c0.082-10.682-6.199-20.16-6.059-30.861c-1.262-18.6,2.18-36.959,4.199-55.359
		c-2.801,0.26-5.602,0.539-8.402,0.84c-0.457,5-0.137,10,0.141,15c-10.1-2.82-5.879-14.42-6.18-21.898
		c2.582-1.561,5.262-2.941,8.039-4.16c2.141,2.639,4.941,4.539,8.023,5.979c0.059-5.539-0.422-11.08,0.098-16.6
		c1.102-4.719,4.621-8.359,6.262-12.859c3.68-5.941,8.48-11.041,12.578-16.68c2.84-4.24,5.723-8.48,9.242-12.181
		c3.66,4.64,7.859,2.84,11.52-0.36c5.801-2.74,11.719-6.199,11.359-13.56c3.559-4.761,6.102-10.12,7.68-15.84
		c1.738,1.2,3.461,2.399,5.141,3.7c-0.281,3.52-1.5,6.84-2.441,10.22c-1.098,2.2-2.98,4.2-3.199,6.739
		c1.059,2.381,2.461,4.601,3.801,6.86c-0.02,1.62-0.039,4.9-0.039,6.521c-2,2.4-4,4.799-6.023,7.18
		c-0.078,2.9-0.156,5.799-0.238,8.701c-3.141,6.059-8.238,11.639-7.762,18.898c-0.719,0.061-2.156,0.18-2.879,0.24
		c-5.258,4.48-10.578,0.16-14.418-3.701c-7.801-3.719-16.141-6.379-24.801-3.799c0.238,1.52,0.699,4.58,0.941,6.1l1.34-1
		c7.699,4.32,16.539,5.4,24.758,8.381c6.68,3,13.859,4.721,20.559,7.721c10.703,5.16,23.082,8.219,30.582,18.219
		c0.879,15.02-0.199,30.16-5.34,44.4c-3.02,7.721-8.941,14.779-9.121,23.32c3.723,3.318,8.801,5.74,13.102,1.879
		c3.879,0,7.539,1.201,11.098,2.66c0.363,5.461,0.461,10.939,0.422,16.42c3.539-0.98,7.602-1.52,10-4.641
		c6.141-6.139,5.32-15.398,5.379-23.34c-0.16-11.32,2.66-22.34,5-33.32c-1.598-0.119-4.777-0.359-6.359-0.479
		c0.082,7.279-4.461,13.199-8.48,18.82c-1.84,0.02-5.52,0.039-7.359,0.061c-1.898-2.301-3.738-4.641-5.539-7.021
		c3.039-6.18,9.34-5.699,15.16-5.221c-0.102-0.939-0.301-2.799-0.402-3.738c-2.879,0.16-5.738,0.32-8.617,0.5
		c0.34-2.24,0.68-4.5,1.02-6.721c2.117-0.041,4.238-0.08,6.359-0.1c-0.16-0.881-0.5-2.621-0.66-3.5
		c-1.641-0.121-4.922-0.381-6.559-0.52c0.316-1.221,0.957-3.66,1.277-4.881c4.121,1.74,8.02,3.861,12.02,5.861
		c-0.258-4.082-1.258-8.041-2.84-11.801c-0.52-0.34-1.598-1.02-2.141-1.359c0.242-3.221,0.441-6.441,0.621-9.682
		c1.602,0.16,3.199,0.32,4.801,0.48c2.922,5.221,6.379,10.1,9.699,15.061c3.281,0.76,6.801,3.939,9.941,1.219
		c3.16-3.578-2.68-5.84-4.422-8.578c-0.16-1.201-0.5-3.621-0.66-4.84c-2.418-1.521-4.797-3.041-7.199-4.562
		c-0.281-4.418-0.52-8.84-0.68-13.238c-4.859,0.219-9.699,0.58-14.539,0.5c-1.602,1.641-3.121,3.379-4.641,5.119
		c-0.699,0.16-2.102,0.461-2.801,0.619c0-5.398,3.801-10.219,8.34-12.859c-0.02-1.398-0.039-4.18-0.059-5.559
		c-3.941-1.9-3.82-6.561-4.941-10.082c-6,5.121-5.418,13-5.617,20.102c-1.844,0.42-3.703,0.84-5.543,1.26
		c-1.32-2.619-2.82-5.141-3.801-7.881c1-12.16,3.922-24.059,6.641-35.939c3.02-1.881,6.02-3.779,9-5.68
		c0.301,2.1,0.883,6.299,1.18,8.4c1.602-2.102,4.82-6.281,6.422-8.36c0.219,3.001,0.441,5.979,0.641,9.001l1.98-0.422
		c0.277,4.121-2.062,10.16,3.719,11.221c0.039,4.061,0.141,8.119,0.398,12.18c1.762,1.361,3.543,2.76,5.301,4.141
		c0.16,3.58,0.359,7.16,0.582,10.76c0.898-0.061,2.699-0.16,3.598-0.199c1.5,4.52,2.32,9.219,1.961,14
		c3.641,0.84,7.262,1.799,10.879,2.738c-0.398,2.881-0.84,5.742-1.398,8.602c-0.98,4.48-1.922,8.98-2.859,13.459
		c6,4.34,12.277,8.92,15.957,15.5c2.203,5.939,1.98,12.4,2.801,18.6c-0.539,4.121-0.957,8.221-1.32,12.34
		c-1.758,4.32-3.438,8.66-5.039,13.041c3.582,0.02,7.141,0.041,10.742,0.1c3.719,2.781,8.039,2.76,11.977,0.359
		c1.703-0.18,5.121-0.52,6.84-0.699c2.441,2.98,8.422,6.641,4.562,10.781c-3.379,3.34-4.16-2.221-5.84-4.301
		c-1.699-0.18-3.422-0.381-5.121-0.539c-1.602,2.359-3.199,4.699-4.758,7.098c-4.582-0.379-7.82-3.238-10.344-6.818
		c-2.898-0.021-5.797,0.02-8.699,0.1c0.02,2.42,0.062,4.84,0.121,7.26c14.32,1.84,29.84,4.561,43.398-2.02
		c1.523-2.119,3.043-4.24,4.602-6.34c0.078-7.361,1-14.98-1.48-22.08c-0.461-5.881-0.801-11.762-1.121-17.641
		c-3.66,1.24-7.32,2.461-11.137,3.061c0.977-8.42-0.703-16.521-3.043-24.561c2.062,0,4.121,0.02,6.18,0.039
		c0.723,5.242,1.961,10.381,3.902,15.32c1.418-5.279,1.039-10.719,0.277-16.059c-5.699-27.48-8.617-56.201-3.438-84.02
		c1.738-8.361-2.422-16.182-4.801-23.941c-2.801-9.24-10.059-16.26-12.738-25.56c4.68,0.92,9.32,2.08,14.02,2.899
		c0.957,1.2,2.879,3.58,3.84,4.761c-1.039,3.14-2.883,6.14-2.883,9.54C318.93,108.481,326.27,120.361,332.547,132.661z
		 M9.748,38.041c-0.921,0.64-2.78,1.94-3.7,2.58c-0.101,3.22,1.92,7.4-0.4,9.64c-4.261,4.112-11.82-0.239-17.74-0.479
		c2.181-4.36,2.48-9.14,1.98-13.92c2.4-1.54,4.78-3.08,7.2-4.58c0.46-0.5,1.38-1.48,1.84-1.98c1.3,2.181,2.62,4.32,3.92,6.5
		c-3.14,1.601-7.56,1.747-9.42,4.74c-0.507,0.815-0.021,2.86-0.021,3.8c1.98-0.22,4.534,0.731,5.94-0.68
		c0.795-0.798,0.34-3.4,0.46-4.54c1.68-1.54,3.34-3.1,4.96-4.7c1.74-0.16,3.5-0.34,5.26-0.5C9.947,34.941,9.808,37.001,9.748,38.041
		z M71.848,38.741c-2.46-0.04-4.9-0.1-7.34-0.16c-5.96,2.92-11.22,7.04-15.58,12.04c-2.021-0.82-8.021,1.101-5.34-3.26
		c-0.04-4,4.96-4.3,7.5-6.181c2.08-3.26,2.56-9.279,7.64-8.92c1.1-0.14,3.34-0.46,4.44-0.619c3.02-1.521,6.02-3.041,9.04-4.561
		C72.088,30.961,71.968,34.861,71.848,38.741z M76.527,2.121c-0.899-1.64-1.819-3.26-2.739-4.899c3.02-1.74,6.039-3.44,9.039-5.2
		c6.12,0,12.2,0.899,18.141,2.3c5.859,3,11.62,6.2,17.04,9.92c-0.12,3.3-0.28,6.62-0.44,9.92c-1.6,0.061-4.779,0.2-6.359,0.28
		c-3.96-4.78-8.641-9.141-14.36-11.7C90.188,1.301,83.288,2.261,76.527,2.121z M93.268,66.821c0.18-2.26,0.36-4.54,0.56-6.8
		l0.86,0.06c1.64-3.72,6.021-1.82,9.08-2.22c-0.12,0.819-0.32,2.5-0.42,3.319c-0.62,1.141-1.86,3.44-2.48,4.58
		C98.327,66.121,95.788,66.481,93.268,66.821z M101.607,70.241c4.22-1.46,7.681,0.2,10.061,3.88c-0.061,1.04-0.141,3.16-0.181,4.22
		c-2.14-0.119-4.279-0.24-6.42-0.359C103.928,75.401,102.768,72.821,101.607,70.241z M123.907,230.2
		c0.061-1.799,0.141-5.418,0.2-7.219c2.779,1.66,6.002,3,7.92,5.801c-1.18,4.578-3.059,8.959-4.621,13.439
		c-2.879-1.682-5.738-3.381-8.618-5c-3.641-1.301-6.82-3.381-8.061-7.32C115.128,229.802,119.527,229.962,123.907,230.2z
		 M153.949-10.119l-0.141,2.58c1.461-0.04,4.379-0.1,5.84-0.12c0.059,0.96,0.16,2.881,0.219,3.84
		c-3.199-0.239-6.398-0.459-9.598-0.659c-0.16-1.721-0.301-3.44-0.461-5.16C150.848-9.759,152.906-9.999,153.949-10.119z
		 M134.469-4.319c-1.242-1.899-2.461-3.819-3.68-5.72c2.961,0.021,5.918,0.08,8.879,0.16c0,1.92,0,3.82,0,5.74
		C137.93-4.199,136.188-4.259,134.469-4.319z M127.969,164.142c-0.48,0.68-1.422,2.059-1.88,2.76c0-3.459,0.059-6.9,0.118-10.34
		c1.641-0.182,3.281-0.34,4.941-0.521c0.602,0.941,1.781,2.82,2.359,3.762c0.102,1.1,0.281,3.26,0.359,4.34
		C132.387,164.142,129.449,164.142,127.969,164.142z M155.547,113.661c-1.238,0.061-3.699,0.18-4.918,0.24
		c0.078,4.979-2.941,8.58-6.621,11.479c0.02,2.762,0.039,5.541,0.039,8.301c-2.68-1.58-5.297-3.199-7.918-4.879
		c-0.961-0.301-2.922-0.922-3.879-1.24c-0.102-1.721-0.203-3.461-0.301-5.181c2.539-0.819,5.059-1.659,7.617-2.46
		c0.801-2.6,1.641-5.199,2.461-7.8c0.941-0.04,2.801-0.1,3.723-0.14c0.078-1.7,0.238-5.12,0.316-6.82
		c3.422,1.04,6.762,2.26,10.141,3.46C155.988,110.281,155.77,111.981,155.547,113.661z M164.168,89.661
		c-0.461-3.08-0.578-6.16-0.719-9.26c-2.52-0.86-5-1.721-7.5-2.58c0.66-4.46-3.883-12.8,4.141-12.78c0.039,1.3,0.078,3.9,0.098,5.2
		c1.762-0.42,3.539-0.84,5.32-1.26c-1.02-0.12-3.039-0.32-4.059-0.42c-0.043-6.761-5.16-17.761,4.539-20.08
		c0.262,5.899-0.32,12.04,2.16,17.58c3.32,7.96,1.441,16.68,1.719,25.02C168.449,90.722,165.59,90.021,164.168,89.661z
		 M175.867,106.481c-0.777,3.399-1.559,6.819-2.277,10.24l-4.16-0.4c0.258-6.88,0.18-13.76,0.297-20.641
		c5.562,0.561,11.082,1.461,16.602,2.4l0.059,3.52C182.848,103.142,179.328,104.781,175.867,106.481z M220.129,135.302
		c-1.422,4.76-3.699,9.18-5.641,13.719c-0.859,5.859-2.602,11.5-4.781,16.98c-1.938,0.1-5.777,0.32-7.699,0.42
		c-1.5-1.619-3.02-3.221-4.539-4.82c-1.121-8.799,0.039-17.721,5.719-24.84c1.062-5.6,2.18-11.439,5.582-16.18
		c2.879,0.36,5.699,1.16,8.539,1.8C218.566,126.581,220.887,130.782,220.129,135.302z M218.707,113.642
		c-3.719-7.36-3.098-15.641-3.141-23.62c3.082,2.76,6.703,5.22,8.762,8.939C222.848,104.001,220.609,108.761,218.707,113.642z
		 M236.348,113.241c-0.141-1.32-0.418-3.98-0.559-5.3c-1.68,0.04-5.062,0.12-6.762,0.159c0.379-3.079,0.922-6.119,1.641-9.119
		c2.859-0.82,5.82-1.26,8.762-1.74c0.078-0.8,0.219-2.42,0.297-3.22c-1.477-1.681-2.938-3.38-4.418-5.061
		c2.52-3.3,4.961-7.02,9.32-7.939c-0.223,2.72-0.422,5.479-0.641,8.22C249.109,97.301,243.59,108.421,236.348,113.241z
		 M245.25,54.722c-4.66,7-3.781,15.76-5.543,23.64c-2.117-0.061-6.34-0.16-8.438-0.22c0.199-4.521,1.758-8.721,4.137-12.541
		c0.242-2.959,0.441-5.939,0.621-8.899c2.539-3.58,5.562-6.9,10.082-7.78C245.828,50.861,245.547,52.801,245.25,54.722z
		 M269.488,36.601c-1.621,1.86-3.238,3.74-4.82,5.641c-4.262-0.7-8.48-1.58-12.699-2.44c0.059,1.561,0.219,4.681,0.281,6.261
		c-2.32-1-4.66-1.961-7-2.92c0.438-0.32,1.359-0.961,1.816-1.301c0.98-1.56,1.82-4.68,4.301-3.319c5.5,0.8,9.082-5.061,13.621-7.28
		c0.461-0.38,1.398-1.16,1.859-1.54c0.719,0.88,2.141,2.62,2.859,3.5C269.648,34.041,269.547,35.741,269.488,36.601z
		 M282.328,218.101c-0.359-4.039-0.102-8.158-1.078-12.119c-0.941,0.18-2.801,0.58-3.723,0.779l0.859-2.881l-2.52,0.201
		c-0.141-2.721-0.277-5.439-0.418-8.139c1.098-0.021,3.258-0.041,4.34-0.062c-0.742,2.721-0.699,5.342,0.117,7.861
		c2.582,1.42,5.383,2.4,8.16,3.381c0.102,3.879,0.223,7.758,0.301,11.639C286.348,218.54,284.328,218.321,282.328,218.101z
		 M314.629,256.841c1.359,1.76,2.738,3.52,4.121,5.301c-2.703,1.359-5.684,1.939-8.66,2.301c-0.062-2.602-0.062-5.182-0.062-7.762
		C311.547,256.722,313.09,256.782,314.629,256.841z"/>
</g>
</svg>
