<svg xmlns="http://www.w3.org/2000/svg" width="900" height="600" xmlns:v="https://vecta.io/nano"><path fill="#de0000" d="M0 0h900v600H0z"/><path d="M475.576 120c61.769 66.24 87.828 93.12 95.55 168.96 1.93 24.96-10.617 52.8-31.85 74.88L403.19 234.24l47.292-41.28-68.525-19.2-80.107 78.72 42.467 42.24 33.78-35.52 128.365 128.64c-43.432 23.04-102.306 24.96-153.458-24.96l-.965-.96L270 439.68l37.641 36.48c10.617-14.4 69.491-71.04 69.491-70.08l-.965-.96c-1.93-2.88-3.861-4.8-5.791-6.72l5.791 6.72c53.083 56.64 123.539 59.52 173.727 25.92L598.15 480 630 450.24l-49.223-47.04c20.268-25.92 33.78-59.52 33.78-99.84-3.861-61.44-49.223-122.88-138.981-183.36z" fill="#fff"/></svg>