<?xml version="1.0" encoding="UTF-8" standalone="no"?>
<svg xmlns="http://www.w3.org/2000/svg" viewBox="0 0 900 600">
  <path fill="#de0000" d="M0 0H900V600H0z"/>
  <g fill="#fff" fill-rule="evenodd" stroke-linecap="round" stroke-linejoin="bevel">
    <path transform="matrix(18.40862 0 0 18.52883 -602.94958275 -1122.74586853)" stroke-width=".35280001" d="M48.9274 74.0974L51.2962 76.4662 53.2044 74.4922 65.6041 86.8927 67.3719 85.216 54.6179 73.1104 57.284 70.7416 53.4018 69.6888 48.9274 74.0974z"/>
    <path d="M 104.43308,48.324808 C 119.37873,58.3843 126.85913,68.587291 127.51784,78.935059 C 127.11946,101.88425 102.38812,112.75813 86.883991,94.73159 L 88.00657,95.976115 C 88.031135,95.945358 78.332462,105.26441 76.478306,107.67547 C 70.33037,101.56921 76.347754,107.60098 70.342991,101.60538 L 83.961538,88.697925 L 84.112527,88.788593 C 100.32091,104.81681 121.36002,89.153261 120.20382,76.456949 C 119.04761,63.760626 114.62424,59.407167 104.43308,48.324808 L 104.43308,48.324808 z" stroke-width=".36186126" transform="matrix(6.24247 0 0 6.24247 -174.2473 -188.9409)"/>
  </g>
  <text x="49.396103" y="186.67146" style="text-align:start;line-height:125%" font-size="130" font-weight="700" font-family="Sans" fill="#fff">
    <tspan x="49.396103" y="186.67146">C</tspan>
  </text>
  <text style="text-align:start;line-height:125%" y="349.97974" x="54.809635" font-size="130" font-weight="700" writing-mode="lr" font-family="Sans" fill="#fff">
    <tspan x="54.809635" y="349.97974">P</tspan>
  </text>
  <text x="55.530605" y="513.28802" style="text-align:start;line-height:125%" font-size="130" font-weight="700" writing-mode="lr" font-family="Sans" fill="#fff">
    <tspan x="55.530605" y="513.28802">I</tspan>
  </text>
</svg>
